<svg xmlns="http://www.w3.org/2000/svg" viewBox="0 0 270 233" width="60" height="52">
	<style>
		tspan { white-space:pre }
		.shp0 { fill: #689d71 } 
		.txt1 { font-size: 5px;fill: #000000;font-family: "'  Helvetica   Neue'" } 
	</style>
	<g id="Layer">
		<path id="Layer" fill-rule="evenodd" class="shp0" d="M7.56 17.95C11.94 12.55 18.81 14.24 24.35 16.66C27.5 18.03 38.34 21.18 34.61 26.53C34.11 27.25 32.67 27.04 32.8 25.99C33.26 22.49 25.43 20.07 22.96 18.97C19.3 17.34 10.19 13.86 8.31 20.15C7.21 23.86 14.11 25.46 16.66 26.46C20.69 28.04 24.71 29.79 29.02 28.2C25.36 26.42 21.3 25.47 17.42 23.9C15.95 23.31 16.82 21.04 18.3 21.6C23.2 23.48 28.8 24.29 33.19 27.28C41.17 32.73 42.9 40.64 46.49 51.07C48.4 49.47 54.43 53.95 113.75 60.69C185.33 68.83 170.88 70.55 210.94 73.99C215.88 74.41 224.68 74.07 227.03 79.63C228.5 83.11 226.95 86.14 223.91 99.09C222.82 103.76 221.28 108.27 219.93 112.87C217.67 120.53 218.39 127.2 211.71 131.02C219.24 132.81 228.56 135.05 242.48 138.33C248.97 139.86 256.11 140.71 262.31 143.23C263.69 142.89 264.84 144.93 263.47 145.96C251.39 155 234.54 157.71 220.14 161.72C251.56 195.51 259.87 198.64 258.55 201.41C258.72 201.76 258.75 202.19 258.5 202.64C253.68 211.44 244.57 218.49 237.29 225.22C236.72 225.75 236.01 225.72 235.48 225.4C232.71 226.36 213.69 205.08 211.7 202.94C205.54 196.3 198.12 189.64 192.92 182.1C189.56 190.48 184.71 198.78 180.14 206.49C176.85 212.04 172.94 218.21 167.03 221.27C166.39 221.6 165.96 220.97 166.04 220.41C163.48 219.86 163.79 201.71 163.34 181.45C161.22 183.41 150.1 183.57 149.27 183.61C143.52 183.89 116.07 183.56 114.22 183.47C118.37 186.56 121.29 190.83 118.19 196.27C113.8 203.99 102.97 203.91 95.84 200.52C89.73 197.61 84.78 190.84 89.32 184.39C91.12 181.83 93.24 180.44 95.53 179.77C88.25 176.6 82.07 171.08 81.57 162.7C81.1 154.66 85.01 143.65 92.23 138.75C82.95 138.7 73.2 140.26 69.87 132.3C69.83 132.2 44.72 56.09 44.69 55.99C41.27 45.52 39.87 33.82 29.58 28.48C27.14 34.34 16.21 28.45 12.62 26.9C7.91 24.87 3.39 23.09 7.56 17.95ZM108.71 183.28C105.81 183.7 103.15 182.88 100.22 182.85C93.03 182.8 88.58 190.29 94.77 195.33C107.28 205.52 127.26 193.71 108.71 183.28ZM163.29 179.05C163.19 173.94 163.18 171.8 163.15 166.67C161.56 168.14 151.29 167.66 126.79 168.54C107.5 169.23 100.1 170.73 95.92 165.25C89.9 157.33 101.01 152.48 106.92 150.76C119.43 147.13 127.98 148.23 133.51 146.2C134.6 145.8 141.43 140.94 141.23 139.29C140.39 139.31 139.55 139.33 138.71 139.35C138.46 139.46 138.17 139.53 137.85 139.53C99.37 139.66 95.19 140.19 90.77 146.54C87.16 151.72 83.87 160.33 86.48 166.57C93.1 182.44 120.9 179.08 134.18 179.63C152.8 180.41 161.11 177.63 163.29 179.05ZM163.59 138.93C157.03 138.97 150.46 139.08 143.9 139.23C144.06 144.74 134.4 149.2 130.4 150.04C121.51 151.89 105.39 150.99 98.92 156.49C96.21 158.79 96.26 162.01 98.45 164.91C101.29 168.67 110.66 166.7 145.51 165.96C148.14 165.91 161.6 164.58 163.14 165.93C163.09 156.95 163.13 147.92 163.59 138.93ZM168.18 125.06C165 156.54 169.67 209.14 167.85 218.4C179.35 206.94 183.62 188.6 191.66 179.22C191.92 178.57 192.7 178.18 193.44 178.69C201.5 184.27 208.09 192.9 214.75 200.02C221.76 207.55 229.15 214.8 235.58 222.83C251.82 206.21 251.32 205.41 255.83 201.48C245.44 195.01 224.99 173.89 216.7 161.98C215.94 160.89 217.29 159.7 218.35 160.03C230.89 154.35 245.83 152.72 257.87 145.93C247.32 145.05 184.82 128.26 168.18 125.06ZM47.74 54.72C47.78 54.83 70.19 121.72 72.49 129.24C74.21 134.85 78.71 135.39 83.98 135.33C93.72 135.24 103.47 135.43 113.21 135.58C131.53 135.01 149.77 135.42 163.73 136.3C163.99 132.04 164.36 127.78 164.88 123.55C165.1 121.77 167.42 121.48 168.12 122.64C181.56 124.19 194.84 127.05 208.02 130.15C209.69 129.44 211.34 128.79 212.57 127.26C215.56 123.57 215.62 117.6 216.83 113.14C219.16 104.55 221.3 95.94 223.53 87.32C224.24 84.58 225.05 82.51 222.97 80.22C221.44 78.54 219.97 77.82 207.44 77.12C185.82 75.91 166.71 70.33 139.8 67.08C109.04 63.37 78.24 60.34 47.74 54.72Z" />
		<path id="Layer" class="shp0" d="M106.61 191.03C105.98 191.61 104.99 192.2 104.09 191.99C103.03 191.74 102.56 190.59 102.2 189.69C102.06 189.31 101.54 189.35 101.37 189.68C100.61 191.24 101.77 193.05 103.23 193.68C105.11 194.51 107.32 193.65 107.9 191.66C108.14 190.86 107.09 190.59 106.61 191.03Z" />
		<path id="Layer" class="shp0" d="M128.09 127.67C131.72 128.32 140.66 128.29 143.51 125.91C143.84 125.64 143.69 125.14 143.33 124.99C140.93 123.98 138.1 124.66 135.58 124.93C133.09 125.21 130.52 125.41 128.06 125.97C127.11 126.18 127.11 127.49 128.09 127.67Z" />
		<path id="Layer" class="shp0" d="M144.02 110.87C144.43 111.08 144.89 110.53 144.68 110.15C141.64 104.6 135.58 100.97 130.17 98.04C129.69 97.79 128.99 98.38 129.47 98.82C134.01 102.96 138.46 108.1 144.02 110.87Z" />
		<path id="Layer" class="shp0" d="M154.15 96.88C154.48 97.31 155.17 96.95 155.19 96.48C155.34 93.29 154.15 90.12 153.23 87.1C152.31 84.07 151.42 81.02 149.91 78.22C149.39 77.25 148.06 77.81 148.16 78.83C148.48 82.19 149.62 85.44 150.63 88.64C151.53 91.48 152.33 94.48 154.15 96.88Z" />
		<path id="Layer" class="shp0" d="M174.42 84.25C174.45 83.48 173.36 82.83 172.88 83.65C171.13 86.6 169.19 91.03 169.54 94.49C169.74 96.43 174.2 92.14 174.42 84.25Z" />
		<path id="Layer" class="shp0" d="M186.95 106.73C187.36 106.98 187.9 106.96 188.31 106.74C191.6 104.94 194.92 102.18 196.87 98.96C197.4 98.1 196.38 97.14 195.53 97.59C193.36 98.72 191.53 100.33 189.65 101.89C187.62 103.56 184.81 105.4 186.95 106.73Z" />
		<path id="Layer" class="shp0" d="M192.67 118.33C195.35 117.73 198.13 117.54 200.76 116.71C201.61 116.44 201.3 115.23 200.55 115.1C197.49 114.58 194.78 115.64 192.27 117.24C191.73 117.58 192 118.48 192.67 118.33Z" />
		<path id="Layer" class="shp0" d="M84.59 121.76C87.37 123.61 90.9 123.91 94.13 124.36C99.58 125.12 104.97 125.94 110.49 125.83C111.01 125.82 110.94 125.1 110.51 124.98C98.71 121.77 90.63 123.54 85.6 120.29C79.77 116.52 79.03 105.66 78.15 99.47C78.05 98.76 77.02 98.99 77.08 99.68C77.66 106.47 78.19 117.51 84.59 121.76Z" />
	</g>
	<text id="Created by Vectors Point " style="transform: matrix(1,0,0,1,0,270)" >
		<tspan x="0" y="0" class="txt1">Created by Vectors Point</tspan>
	</text>
	<text id="from the Noun Project " style="transform: matrix(1,0,0,1,0,275)" >
		<tspan x="0" y="0" class="txt1">from the Noun Project</tspan>
	</text>
</svg>