<svg xmlns="http://www.w3.org/2000/svg" viewBox="0 0 6350 7937" width="150" height="187">
	<style>
		tspan { white-space:pre }
		.shp0 { fill: #375c3d } 
		.txt1 { font-size: 5px;fill: #000000;font-family: "' Helvetica  Neue'" } 
	</style>
	<g id="Layer">
		<path id="Layer" fill-rule="evenodd" class="shp0" d="M3491.63 398.5C3489.38 400 3433 400.75 3365.38 400C3230.88 398.5 3209.88 403 3145.88 451.13C3114.38 475.13 3103.88 482.63 3037 526.25C2918.25 604.38 2830.25 712.63 2803.25 814.88C2775.38 917.13 2768.63 947.13 2770.88 949.38C2771.63 950.88 2745.38 950.88 2711.5 950.13C2655.13 949.38 2645.38 946.38 2601 921.63C2528.13 880.25 2474 865.25 2376.25 860.75C2246.25 854.75 2167.38 874.25 2058.38 940.38C2000.5 975 1935.88 1040.38 1901.25 1096.75L1875.75 1138.75L1875.75 1256C1875.75 1354.5 1878.75 1383.13 1893 1438.63C1932.13 1586 1992.25 1701 2100.5 1835.5C2168.13 1919.75 2304.88 2046 2347 2064C2374.75 2075.25 2462.75 2136.88 2480.75 2157.25C2491.25 2169.25 2583.75 2233.13 2590.5 2233.13C2592 2233.13 2615.25 2249.63 2640.88 2270.75C2667.13 2291 2707 2316.5 2729.5 2327.88C2752.13 2339.13 2782.13 2356.38 2796.5 2367.63C2810.75 2378.13 2828 2390.25 2835.5 2394.75C2888.88 2426.25 2952 2461.63 2999.38 2485.63C3030.13 2502.25 3057.25 2517.25 3058 2520.25C3059.5 2524 3064 2526.25 3067.75 2526.25C3078.25 2526.25 3196.25 2585.63 3209.88 2597.63C3233.88 2617.88 3362.38 2678 3391.75 2682.63C3418 2685.63 3421.75 2684.88 3418.75 2672C3417.25 2663.75 3406 2654.75 3390.25 2650.25C3352.63 2638.25 3260.88 2594.63 3246.63 2581.88C3240.63 2576.63 3194.75 2551 3145.13 2525.5C3096.38 2500.63 3052.75 2477.38 3048.25 2473.63C3040 2467.63 2977.63 2433 2916.75 2401.5C2863.38 2373.63 2689 2268.5 2662.63 2248.13C2651.38 2239.13 2613 2212.88 2577 2189.5C2541.63 2166.25 2502.63 2138.38 2490.5 2127.88C2438.63 2082.75 2399.63 2053.5 2366.5 2037C2291.38 1998.63 2141 1847.5 2063.63 1733.25C1944.88 1556.63 1893 1387.63 1908.75 1221.5C1916.38 1138.75 1932.88 1096.75 1971.25 1062.88C1981 1053.88 2005.75 1032.13 2026 1014C2081.63 964.38 2151.63 926.88 2226 906.5C2280.88 892.25 2304.13 890 2369.5 892.25C2468 896.75 2516.13 909.5 2607 956.13C2646.88 976.5 2686 993 2693.5 993C2701 993 2715.25 998.25 2725 1005C2748.38 1020 2776.13 1011 2807.75 978C2825 959.88 2828.75 949.38 2830.25 908.75C2832.5 853.88 2848.25 793.75 2870.88 757.75C2879.13 743.5 2884.38 730.63 2882.13 727.63C2867.13 712.63 2943.75 627.75 3032.5 560.13C3064 536 3104.63 504.5 3121.88 491.63C3139.13 478.13 3179 458.63 3209.88 448.88C3258.63 433 3278.25 430.75 3356.38 432.25C3424.75 433.75 3457.88 438.25 3493.88 450.38C3520.25 459.38 3554.75 469.88 3571.38 474.38C3587.13 478.88 3600.63 485.63 3600.63 489.38C3600.63 499.13 3545.75 499.13 3536 489.38C3523.25 476.63 3345.88 510.5 3300.75 533.75C3279.75 545.75 3280.5 559.38 3302.25 552.5C3391 524 3522.5 512 3589.38 525.5C3667.5 541.25 3704.38 560.13 3745 605.13C3784 648.75 3787.75 663 3757.75 646.5C3719.38 626.25 3657.75 617.13 3529.25 611.88C3389.5 607.38 3337.63 611.13 3337.63 627C3337.63 633.75 3376.63 636.75 3488.63 637.5C3649.5 639.75 3713.38 648.75 3752.5 677.38C3763.75 685.63 3778 692.38 3784 692.38C3800.63 692.38 3816.38 727.63 3822.38 778.75C3825.38 803.63 3830.63 835.88 3834.38 850.13C3841.88 881.75 3859.25 1019.25 3858.5 1045.63C3857.75 1055.38 3854 1075.63 3850.13 1090.75C3845.63 1105 3836.63 1149.38 3829.88 1188.38C3813.38 1283.88 3754 1525.13 3739 1561.25C3732.13 1577.75 3723.88 1600.25 3720.13 1613C3717.13 1625.13 3704.38 1672.38 3691.63 1718.25C3678.88 1763.38 3661.5 1829.5 3652.5 1864.88C3630.75 1949 3553.25 2198.5 3512.75 2312C3475.88 2418 3434.5 2620.25 3446.63 2639C3448.88 2642.75 3466.13 2646.5 3484.13 2646.5C3522.5 2646.5 3529.25 2639 3536.75 2582.63C3539.75 2561.63 3546.5 2534.5 3551.75 2521.75C3557.88 2509.75 3564.63 2484.13 3567.63 2465.38C3569.88 2447.38 3576.63 2421 3582.63 2407.5C3588.63 2394 3599.13 2354.13 3605.13 2318C3611.88 2282 3621.75 2243.63 3627 2233.13C3642.75 2204.5 3668.25 2129.38 3668.25 2112.13C3668.25 2082 3729.13 1915.25 3743.5 1906.13C3747.25 1903.88 3751 1889.63 3751 1874.63C3751 1859.63 3754 1837 3757.75 1824.25C3779.5 1752.88 3799.88 1693.5 3808.13 1676.88C3826.13 1643.88 3838.88 1595.75 3832.88 1585.25C3826.88 1574 3855.5 1472.5 3878.75 1425.13C3887 1408.63 3893.75 1388.38 3893.75 1380C3893.75 1371.75 3902 1333.5 3912.63 1294.38C3938.13 1201.13 3967.38 1037.38 3972 968.88C3975.75 919.38 3971.25 879.5 3947.13 756.25C3943.38 735.13 3929.13 686.38 3914.88 647.25C3893 586.38 3884.75 571.38 3850.88 539C3829.13 518.75 3811.13 497.63 3811.13 493.13C3811.13 478.88 3673.5 414.25 3644.25 414.25C3629.25 414.25 3613.38 409 3608.13 403C3600.63 394 3585.63 391.75 3546.5 393.25C3518 394.75 3493.13 397 3491.63 398.5L3491.63 398.5Z" />
		<path id="Layer" fill-rule="evenodd" class="shp0" d="M3366.13 801.38C3354.13 808.13 3345.13 814.13 3345.13 814.88C3345.13 815.63 3408.25 816.38 3485.63 816.38C3641.25 816.38 3694.63 824.63 3731.38 855.5C3745 866.75 3755.5 871.25 3760 866.75C3774.25 852.5 3751 829.13 3708.13 811.88C3669.75 796.88 3648 794.63 3525.5 792.25C3410.5 790 3382.63 791.5 3366.13 801.38L3366.13 801.38Z" />
		<path id="Layer" fill-rule="evenodd" class="shp0" d="M4938.5 887C4938.5 884 5003.88 882.5 5084.25 884L5230.88 885.5L5269.13 910.25C5349.63 962.13 5429.25 1084.63 5458.63 1201.88C5466.88 1235 5472.13 1333.5 5472.13 1428.88C5472.13 1478.5 5448.75 1566.5 5422.5 1617.5C5412 1638.63 5402.25 1665.63 5400.75 1678.5C5399.25 1690.5 5392.5 1705.5 5384.88 1710C5366.13 1724.25 5376.63 1734.75 5423.25 1749.13C5459.38 1761.13 5470.63 1761.13 5512.75 1752.88C5569.13 1741.63 5607.38 1750.63 5686.38 1793.38C5711.13 1806.25 5745 1821.25 5761.5 1826.5C5806.63 1840.75 5861.5 1881.38 5910.25 1935.5C6026.75 2066.25 6048.63 2115.88 6059.13 2265.38L6065.88 2369.13L6041.88 2453.38C6017 2541.25 5972.63 2641.25 5934.38 2699.13C5921.63 2717.88 5907.25 2742.75 5902 2754C5896.75 2766.75 5875 2786.25 5847.13 2802.88C5821.63 2817.88 5784.75 2844.13 5763.75 2860.75C5672 2935.13 5654 2947.88 5611.13 2968.88C5586.38 2981 5525.5 3001.25 5475.88 3014C5426.25 3026.75 5366.88 3042.63 5344.38 3048.63C5293.25 3062.88 5104.63 3070.38 5032.38 3061.38C4964.75 3052.38 4727.25 3005 4611.5 2977.25C4561.88 2965.13 4494.25 2950.13 4461.25 2944.13C4428.13 2937.38 4348.5 2918.63 4284.63 2901.25C4220.75 2884.75 4127.5 2860.75 4077.88 2848.63C4028.25 2835.88 3968.88 2820.13 3946.38 2811.88C3923.88 2804.38 3865.25 2788.5 3817.13 2777.25C3745 2760.75 3716.38 2757.75 3657.75 2760.75L3585.63 2763.75L3584.88 2744.25C3584.13 2733.63 3584.13 2722.38 3585.63 2717.88C3586.38 2714.13 3587.13 2700.63 3587.13 2687.88C3587.13 2675.75 3593.88 2648 3600.63 2627.75C3608.13 2606.63 3615.63 2575.13 3617.88 2556.25C3625.5 2496.13 3639 2425.5 3651 2387.25C3678.75 2299.25 3709.63 2211.38 3726.13 2173C3736.63 2150.5 3751.75 2112.88 3760 2090.38C3768.25 2067.75 3789.25 2011.38 3807.38 1966.25C3825.38 1920.5 3847.88 1860.38 3859.25 1831.75C3875 1789.63 3967.38 1616.75 4039.63 1494.25C4062.13 1456.75 4123.75 1380 4160.63 1344C4273.38 1233.5 4310.88 1198.88 4367.25 1150.13C4446.25 1083.13 4514.63 1038.13 4591.25 1003.5C4622.88 989.25 4669.38 966.63 4694.25 954.63C4746.88 928.38 4815.25 911 4864.88 910.25C4899.38 910.25 4938.5 898.25 4938.5 887ZM5064.75 959.13C4974.5 941.88 4976.13 941.88 4931 949.38C4908.38 953.13 4879.88 954.63 4867.88 952.38C4840 946.38 4767.88 965.13 4701.75 994.5C4527.38 1071.13 4465.75 1108.75 4348.5 1209.5C4219.25 1321.38 4133.5 1412.38 4086.13 1489C4074.88 1507.88 4043.38 1558.13 4017 1601C3953.88 1701.75 3874.25 1861.13 3829.88 1974.63C3811.13 2023.38 3775 2115.13 3750.25 2177.5C3726.13 2239.88 3705.88 2295.5 3705.88 2301.5C3705.88 2307.5 3701.38 2320.25 3696.13 2330.88C3682.63 2356.38 3663.75 2418 3657.75 2454.88C3654.75 2471.38 3643.5 2520.25 3633 2563C3617.88 2624.75 3615.63 2644.25 3622.5 2654.75C3627 2663 3630.75 2677.25 3630.75 2687.88C3630.75 2701.38 3635.25 2707.38 3648 2709.63C3657 2711.13 3684.88 2716.38 3709.63 2721.63C3734.38 2726.13 3778.75 2732.88 3807.38 2737.38C3836.63 2741.25 3875 2749.5 3893.75 2755.5C3950.13 2774.25 4008 2790 4044.13 2796C4102 2806.63 4188.38 2831.38 4235.75 2850.88C4260.5 2861.5 4301.13 2874.25 4325.88 2879.5C4350.75 2884.75 4386.13 2893.75 4404.88 2899.75C4423.63 2905.75 4456 2912.5 4476.25 2914C4497.25 2916.38 4531.13 2922.38 4551.38 2928.38C4572.5 2934.38 4601.75 2941.13 4617.5 2943.38C4632.63 2945.63 4645.38 2950.88 4645.38 2953.88C4645.38 2956.88 4671.63 2965.88 4704 2972.63C4735.5 2980.25 4776.13 2988.5 4793.38 2993C4831 3001.25 5037.75 3001.25 5096.38 2993C5118.88 2990 5148.88 2990 5163.25 2993C5180.5 2996.75 5199.25 2995.25 5219.63 2987.75C5236.88 2982.5 5277.5 2977.25 5310.5 2977.25C5397.75 2977.25 5448.13 2956.13 5637.5 2843.38C5720.13 2794.5 5757 2761.5 5811.88 2688.63C5859.13 2625.5 5882.5 2585.63 5920.88 2499.88C5939.63 2458.63 5946.38 2429.25 5953.13 2361.63C5957.63 2310.5 5958.38 2273 5954.63 2267.75C5950.88 2263.13 5943.38 2242.13 5938.13 2220.38C5933.63 2198.5 5925.38 2177.5 5920.13 2173.75C5914.75 2169.25 5899 2140.63 5885.5 2111.38C5838.88 2006.88 5832.88 1997.13 5790 1952.75C5754.75 1916.75 5730.63 1900.88 5660 1867.88C5604.38 1840.75 5552.5 1822.75 5512 1814.5C5475.13 1807.75 5449.63 1798.75 5449.63 1793.38C5449.63 1781.38 5352.63 1767.88 5326.25 1776.88C5315 1780.63 5303.75 1781.38 5300.75 1778.38C5297.75 1775.38 5295.5 1755.13 5296.25 1732.5C5296.25 1686 5301.5 1689 5209 1677.75C5161 1671.63 4761.88 1672.38 4695 1678.5C4667.13 1681.5 4660.38 1664.13 4686 1657.38C4714.5 1650.63 5131.63 1649.88 5228.63 1656.63L5311.25 1662.63L5331.63 1622.88C5353.38 1578.5 5357.88 1562.75 5366.88 1481.5C5377.38 1390.63 5375.88 1296.63 5362.38 1250C5342.88 1184.63 5294 1098.25 5249.63 1052.38C5200.75 1001.25 5149.63 975 5064.75 959.13Z" />
		<path id="Layer" fill-rule="evenodd" class="shp0" d="M4752.13 1082.38C4726.5 1084.63 4705.5 1090 4705.5 1093.75C4705.5 1098.25 4787.38 1101.25 4898.63 1102.75C5005.38 1103.5 5107.63 1108 5126.38 1112.5C5167.75 1122.25 5224.13 1123 5224.13 1114C5224.13 1108 5161 1095.25 5066.25 1083.13C5012.13 1076.38 4825 1075.63 4752.13 1082.38L4752.13 1082.38Z" />
		<path id="Layer" fill-rule="evenodd" class="shp0" d="M4616 1210.25C4593.5 1224.5 4634.88 1228.25 4866.38 1234.25C5098.63 1240.25 5150.38 1244.75 5224.13 1263.5C5293.25 1281.63 5294 1281.63 5290.25 1270.38C5288 1264.25 5269.88 1253.75 5249.63 1245.5C5182 1220 5076 1211 4850.5 1211.75C4734 1211.75 4635.63 1210.25 4631.88 1208C4628.88 1206.38 4621.25 1207.25 4616 1210.25L4616 1210.25Z" />
		<path id="Layer" fill-rule="evenodd" class="shp0" d="M4622.88 1375.5C4622.88 1390.63 4626.63 1390.63 4802.5 1386.13C4964 1382.25 5127.13 1389.88 5185 1404.13C5203 1408.63 5207.5 1425.13 5192.5 1431.13C5185 1433.38 5185 1437.13 5191 1443.25C5201.5 1454.5 5237.63 1441.63 5243.63 1425.13C5251.88 1404.88 5224.88 1385.38 5176.75 1376.25C5109.88 1363.5 4750.63 1358.25 4697.25 1368.75C4665.63 1375.5 4650.63 1375.5 4638.63 1369.5C4625.13 1362 4622.88 1362.75 4622.88 1375.5L4622.88 1375.5Z" />
		<path id="Layer" fill-rule="evenodd" class="shp0" d="M4803.25 1531.88C4687.5 1534.13 4660.38 1537.13 4660.38 1549.13C4660.38 1553.63 4737 1556.63 4867.88 1556.63C5096.38 1556.63 5242.13 1567.25 5263.88 1585.25C5273.75 1594.25 5279 1595 5285.75 1588.25C5300.75 1573.25 5278.25 1560.5 5224.13 1550.63C5164 1539.38 4994.13 1525.88 4946.75 1528.13C4928 1528.88 4863.38 1531.13 4803.25 1531.88L4803.25 1531.88Z" />
		<path id="Layer" fill-rule="evenodd" class="shp0" d="M4763.38 1802.5C4691.25 1804.75 4667.88 1807.75 4670.13 1814.5C4672.38 1821.25 4743.88 1823.5 4969.25 1825C5185 1825.75 5293.25 1829.5 5366.88 1837.75C5522.5 1856.63 5535.25 1858.13 5546.5 1867.88C5554.75 1874.63 5556.25 1873.88 5553.25 1864.88C5551.75 1858.88 5543.5 1852.75 5535.25 1851.25C5527.75 1849.75 5514.25 1846 5506 1843C5449.63 1819 5127.13 1794.88 4927.25 1798.75C4890.38 1799.5 4816 1801.75 4763.38 1802.5L4763.38 1802.5Z" />
		<path id="Layer" fill-rule="evenodd" class="shp0" d="M4667.88 1909.13C4661.88 1913 4658.88 1918.25 4660.38 1920.5C4662.63 1922 4806.25 1925 4979.88 1927.25C5340.63 1931.75 5597.63 1944.5 5614.88 1958.75C5621.63 1964 5651 1967.75 5690.13 1968.5C5836.63 1969.25 5653.25 1938.5 5385.63 1917.5C5244.38 1906.13 4682.25 1899.38 4667.88 1909.13Z" />
		<path id="Layer" fill-rule="evenodd" class="shp0" d="M4760.38 2002.38C4741.63 2010.63 4737 2033.25 4752.13 2042.25C4757.38 2046 4871.63 2049 5006.13 2050.5C5565.25 2055 5742.63 2064 5711.13 2084.25C5696.13 2093.38 5756.25 2091.88 5773.5 2082C5803.63 2066.25 5787.75 2061 5667.5 2048.25C5617.13 2043 5297.75 2031.75 5022.63 2025.63C4827.25 2021.13 4780.63 2018.13 4783.63 2010.63C4788.88 1996.38 4779.88 1993.38 4760.38 2002.38L4760.38 2002.38Z" />
		<path id="Layer" fill-rule="evenodd" class="shp0" d="M4967 2149C4959.5 2150.5 4953.5 2154.25 4953.5 2158C4953.5 2167 4985.88 2169.25 5536 2192.5C5681.75 2198.5 5785.5 2215.88 5782.5 2232.38C5781 2236.88 5790.75 2240.63 5806.63 2240.63C5827.63 2240.63 5832.88 2237.63 5832.88 2225.63C5832.88 2216.63 5825.38 2207.5 5815.63 2203.75C5793.75 2195.5 5627.75 2175.25 5569.88 2173.75C5547.25 2173 5452.63 2167.75 5359.38 2161.75C5179 2150.5 4988.13 2143.63 4967 2149Z" />
		<path id="Layer" fill-rule="evenodd" class="shp0" d="M4985.88 2305.25C4957.25 2317.25 4987.38 2323.25 5079.75 2323.25C5263.13 2324 5572.13 2345.88 5661.5 2363.88C5704.38 2372.13 5705.88 2373.63 5694.63 2385.75C5682.5 2397.75 5684.13 2397.75 5717.88 2393.25C5755.5 2388.75 5772 2376.63 5754.75 2366.88C5704.38 2338.38 5429.25 2309 5182.75 2304.5C5079.75 2303 4990.38 2303 4985.88 2305.25L4985.88 2305.25Z" />
		<path id="Layer" fill-rule="evenodd" class="shp0" d="M4889.63 2466.13C4886.63 2470.63 4885.88 2475.88 4887.38 2477.38C4896.38 2487.13 5009.13 2503.75 5107.63 2510.5C5344.38 2527.75 5514.25 2541.25 5528.5 2544.25C5537.5 2545.75 5582.63 2549.5 5630 2551.75C5677.25 2554.75 5728.38 2558.5 5742.75 2560.75C5761.5 2563.13 5766 2562.38 5757 2557C5742 2547.25 5670.5 2536 5558.5 2525.5C5509 2521 5415.75 2512.75 5351.88 2506.75C5288 2500.63 5193.25 2492.38 5141.38 2488.63C5058 2481.88 4991.13 2474.38 4919 2461.63C4904.63 2458.63 4892.63 2460.88 4889.63 2466.13L4889.63 2466.13Z" />
		<path id="Layer" fill-rule="evenodd" class="shp0" d="M4852.75 2623.25C4849.75 2627.75 4856.5 2636.75 4867.13 2643.5C4881.38 2652.5 4913.63 2657.75 4993.38 2662.25C5052 2665.25 5124.13 2672 5152.75 2676.5C5182 2680.38 5240.63 2687.88 5284.25 2691.63C5327.75 2695.38 5381.88 2702.13 5404.5 2706.63C5427 2711.13 5457.88 2715.63 5472.13 2717.88C5486.38 2720.13 5521.75 2724.63 5550.25 2729.13C5578.88 2732.88 5604.38 2735.13 5605.88 2732.88C5613.38 2725.38 5596.88 2714.13 5576.63 2714.13C5564.63 2714.13 5533 2709.63 5507.5 2703.63C5437.5 2687.88 5374.38 2678.13 5257.88 2665.25C5200 2658.5 5142.88 2651.75 5130.13 2649.5C5118.13 2648 5057.25 2641.25 4994.88 2636C4933.25 2630 4876.88 2623.25 4870.13 2620.25C4862.63 2618 4855 2618.75 4852.75 2623.25L4852.75 2623.25Z" />
		<path id="Layer" fill-rule="evenodd" class="shp0" d="M4763.38 2772C4742.38 2777.25 4752.88 2792.25 4781.38 2797.63C4795.63 2800.63 4824.25 2806.63 4844.5 2811.13C4865.63 2815.63 4929.5 2826.13 4987.38 2834.38C5045.25 2841.88 5097.88 2850.13 5103.88 2852.38C5109.88 2854.63 5171.5 2865.25 5240.63 2875C5309.75 2885.5 5372.88 2898.25 5381.13 2903.5C5389.5 2908.75 5398.5 2910.25 5401.5 2908C5409 2899.75 5397 2887 5381.13 2887C5372.88 2887 5360.13 2884 5352.63 2880.25C5333.13 2869.75 5068.5 2821.63 4938.5 2804.38C4903.13 2799.88 4861.13 2791.5 4844.5 2786.25C4802.5 2772 4779.13 2768.25 4763.38 2772L4763.38 2772Z" />
		<path id="Layer" fill-rule="evenodd" class="shp0" d="M3262.38 966.63C3257.13 972.75 3255.63 978.75 3259.38 979.5C3263.13 980.25 3337.63 981 3424 981.75C3614.13 983.25 3694.63 996 3798.25 1041.13C3825.38 1053.13 3811.13 1023 3783.25 1009.5C3708.13 972 3590.13 955.38 3400.75 955.38C3295.5 955.38 3270 957.63 3262.38 966.63L3262.38 966.63Z" />
		<path id="Layer" fill-rule="evenodd" class="shp0" d="M3318.75 1127.5C3310.5 1141.75 3334.63 1144.75 3467.63 1147C3593.88 1149.38 3638.25 1154.63 3720.88 1177.88C3738.13 1183.13 3739 1182.38 3729.13 1170.38C3712.63 1150.88 3677.25 1138.75 3608.13 1129C3532.25 1119.25 3324.75 1117.75 3318.75 1127.5L3318.75 1127.5Z" />
		<path id="Layer" fill-rule="evenodd" class="shp0" d="M3341.38 1304.88C3329.38 1310.13 3320.25 1315.38 3322.5 1316.13C3324.75 1316.88 3394 1319.13 3476.63 1320.63C3559.25 1322.88 3636.75 1327.5 3648.75 1332C3660.75 1335.75 3683.38 1338.75 3699.13 1338.75C3714.88 1338.75 3729.88 1341.75 3732.13 1346.25C3734.38 1350 3740.5 1353.75 3744.25 1353.75C3757 1353.75 3743.5 1338 3724.63 1331.25C3650.25 1302.63 3385.63 1284.63 3341.38 1304.88L3341.38 1304.88Z" />
		<path id="Layer" fill-rule="evenodd" class="shp0" d="M1556.25 2112.88C1542 2115.88 1503.75 2121.13 1472.13 2124.13C1420.25 2128.63 1411.25 2131.63 1393.25 2151.25C1381.13 2163.25 1365.38 2173 1356.38 2173C1347.38 2173 1323.25 2186.5 1303 2202.25C1282.75 2218.88 1240.63 2243.63 1209.13 2257.88C1178.25 2272.25 1150.5 2287.25 1147.5 2291.75C1145.13 2296.25 1127.88 2306.75 1109.88 2315C1040 2348.88 973.13 2439.75 932.5 2555.5C917.5 2598.38 916 2612.63 920.5 2675.75C928.75 2789.25 932.5 2802.13 972.38 2863C1064 3004.25 1159.5 3080.13 1320.25 3142.5C1351.13 3153.88 1382.75 3171.88 1391 3181.63C1403.75 3197.38 1405.25 3197.38 1406 3184.63C1406 3171.88 1409.75 3171.13 1443.63 3175.63C1472.88 3179.38 1481.13 3178.63 1481.13 3170.38C1481.13 3159.88 1449.63 3147.75 1396.25 3138C1354.13 3130.5 1253.38 3086.88 1204.5 3054.63C1158.75 3023.75 1040 2910.25 1020.38 2878C967 2790.75 960.25 2766.75 961.75 2662.25C963.25 2587.13 971.63 2554 1008.38 2475.13C1032.5 2426.25 1051.25 2402.25 1083.5 2381.88C1094.13 2375.13 1124.13 2351.13 1150.5 2327.88C1176.75 2305.25 1206.88 2284.25 1217.38 2282C1227.88 2279 1247.38 2272.25 1259.38 2267C1331.63 2234.63 1360.13 2224.88 1411.25 2214.38C1499.88 2195.5 1572.13 2193.25 1702.88 2202.25C1783.25 2208.38 1844.13 2217.38 1887 2229.38C1922.38 2239.13 1972.75 2249.63 1999.75 2251.88C2026.75 2254.88 2060.63 2260.13 2074.88 2264.75C2089.25 2268.5 2153.13 2285 2217 2301.5C2280.13 2318 2338 2334.63 2344.75 2339.13C2354.5 2345.13 2353 2345.88 2338 2342.13C2297.38 2331.63 2085.38 2328.63 2068.13 2337.63C2059.13 2342.88 2053.13 2348.88 2054.63 2351.13C2062.88 2358.63 2360.5 2359.38 2360.5 2351.88C2360.5 2330.88 2535.63 2378.13 2565 2407.5C2572.5 2415 2589.75 2421 2603.25 2421C2616 2421.75 2646.13 2431.5 2668.63 2443.63L2710 2465.38L2680 2466.13C2663.38 2466.13 2607 2460.13 2555.88 2453.38C2442.5 2437.5 2037.38 2436.75 1994.5 2452.63C1964.38 2463.13 1965.88 2478.13 1996.75 2475.88C2099 2466.88 2379.25 2466.13 2468.75 2472.88C2527.38 2478.13 2613.75 2483.38 2662.63 2484.88L2749.88 2487.13L2843 2536C2893.38 2563.13 2962.5 2599.13 2995.63 2616.38C3058.75 2650.25 3185.75 2726.88 3254.13 2772.75C3282.75 2792.25 3291 2801.38 3282 2802.88C3273.75 2804.38 3270.75 2810.38 3273.75 2818.63C3276 2826.88 3266.25 2841.88 3244.38 2863.75L3210.63 2896.75L3178.25 2884.75C3113.63 2860.75 2920.5 2835.13 2751.38 2829.13C2670.88 2826.13 2595.75 2829.88 2465.75 2841.88C2368.75 2850.88 2282.38 2858.5 2274.13 2858.5C2254.5 2857.75 2201.13 2872.75 2192.13 2881C2187.63 2884.75 2187.63 2890 2192.13 2894.5C2196.63 2899 2232.75 2896.75 2296.63 2887C2511.63 2855.5 2737.88 2850.13 2973.13 2872.75C3099.38 2884 3161.75 2896 3158.75 2908C3158 2913.25 3164 2917.13 3172.25 2917.13C3194 2917.13 3191 2926.88 3159.5 2963.63C3143.63 2981.75 3125.63 3005 3118.13 3014.75C3107.63 3030.5 3103.88 3032.13 3091.13 3024.5C3080.5 3018.5 2960.25 3015.5 2645.38 3014.75C2348.5 3014.75 2213.25 3011.75 2209.5 3006.5C2201.88 2993.75 2172.63 3006.5 2172.63 3022.25C2172.63 3029.75 2178.63 3038.13 2186.13 3040.38C2208 3047.13 2970.13 3043.38 3020.38 3036.63C3046.75 3032.88 3071.5 3031.25 3076 3034.38C3080.5 3037.38 3066.25 3056.88 3043 3081.63C2998.63 3127.5 2953.5 3179.38 2924.25 3219.25C2899.38 3252.25 2705.5 3445.5 2653.63 3489C2631.13 3507.88 2592 3544.63 2567.25 3571C2496.5 3646.13 2463.5 3676.88 2441.75 3688.25C2431.13 3693.5 2415.38 3706.25 2407.88 3716C2373.25 3760.38 2218.5 3897.88 2161.38 3935.5C2126.75 3958 2067.38 3990.38 2029.88 4006.88C1992.25 4023.38 1948.63 4043.75 1933.63 4052C1854.75 4093.38 1723.13 4123.38 1620.25 4122.63C1579.63 4122.63 1566.88 4118.88 1509.75 4086.5C1473.63 4066.25 1425.5 4034 1403 4015.13C1363.88 3982.88 1293.25 3899.38 1293.25 3885.88C1293.25 3882.88 1283.5 3858.88 1271.5 3832.5C1252.63 3790.38 1242.13 3758.13 1230.13 3700.25C1228.63 3690.5 1230.13 3640.13 1233.88 3587.5C1239.88 3498.75 1242.13 3488.25 1270 3430.38C1320.25 3325.13 1359.38 3264.25 1389.5 3244C1413.5 3227.5 1415 3225.25 1400 3225.25C1350.38 3225.25 1303.75 3280.88 1244.38 3410.88C1204.63 3497.25 1203.88 3501.75 1196.25 3597.25C1188 3706.25 1191.75 3739.38 1220.38 3812.25C1245.88 3879.88 1255.63 3897.13 1299.25 3956.5C1343.63 4015.88 1391 4057.25 1454.13 4090.25C1479.63 4103.88 1508.25 4120.38 1518.75 4127.13C1529.25 4134.63 1551.75 4144.38 1569.13 4149.63C1633 4169.25 1855.5 4129.38 1947.13 4082C1965.88 4072.25 2013.25 4050.5 2052.38 4033.88C2135.75 3997.13 2254.5 3908.38 2349.25 3811.5C2382.38 3776.88 2426.63 3735.5 2447 3719.75C2480.75 3692.75 2758.13 3428.88 2864.13 3322.88C2887.38 3300.38 2923.5 3259.75 2946 3232.75C2967.75 3205.63 3014.38 3154.63 3049 3118.5C3108.38 3057.63 3114.38 3053.88 3137.63 3057.63C3161 3061.38 3167.75 3056.13 3243.63 2982.5C3322.63 2905.75 3324.88 2902.75 3320.25 2877.25C3317.25 2858.5 3319.5 2847.88 3327.13 2841.13C3343.63 2827.63 3336.13 2765.25 3314.25 2732.13C3276 2676.5 3133.88 2587.88 2995.63 2533.75C2962.5 2521 2920.5 2500.63 2901.63 2489.38C2872.38 2471.38 2835.5 2454.13 2713.75 2400.75C2699.5 2394 2671.63 2381.13 2652.13 2371.38C2598.75 2345.13 2489.75 2303 2439.5 2288.75C2414.63 2282 2375.5 2267.63 2353 2257.88C2256.75 2215.13 1992.25 2139.88 1864.5 2119.63C1775 2105.38 1605.88 2101.63 1556.38 2112.88L1556.25 2112.88Z" />
		<path id="Layer" fill-rule="evenodd" class="shp0" d="M2099 2583.38C2090 2589.38 2082.38 2599.88 2082.38 2605.88C2082.38 2614.88 2121.5 2616.38 2359 2615.63C2510.88 2615.63 2675.38 2618.63 2725 2623.25C2897.88 2639 2961.75 2645.75 2968.5 2650.25C2973 2652.5 2977.63 2651 2979.88 2647.25C2985.88 2638.25 2932.5 2625.5 2852.75 2616.38C2816 2611.88 2751.38 2604.38 2710 2599.13C2660.38 2593.13 2546.88 2590.88 2374 2591.63C2217.75 2593.13 2112.5 2590.88 2112.5 2587.13C2112.5 2583.38 2120 2578.13 2129.75 2576.63C2144 2573.63 2144.75 2573.63 2131.25 2572.13C2123 2572.13 2108 2576.63 2099 2583.38L2099 2583.38Z" />
		<path id="Layer" fill-rule="evenodd" class="shp0" d="M2219.25 2736.63C2209.5 2740.5 2203.38 2747.25 2205.63 2751C2208 2754.75 2312.38 2757.75 2437.13 2757.75C2659.63 2758.5 2752.88 2765.25 2999.38 2797.63C3100.13 2811.13 3146.63 2813.38 3138.38 2805.88C3129.38 2796.88 3046 2779.5 2954.25 2767.5C2919 2763 2853.5 2753.25 2807.75 2747.25C2708.5 2732.88 2247 2724.63 2219.25 2736.63Z" />
		<path id="Layer" fill-rule="evenodd" class="shp0" d="M3527.75 2805.13C3572.88 2783.25 3626.25 2790 3722.38 2828.38C3742 2835.88 3774.25 2844.13 3793.75 2846.38C3813.38 2849.38 3854.63 2860.75 3884.75 2872.75C3914 2884.75 3963.63 2904.25 3993.75 2916.38C4023 2928.38 4066.63 2944.13 4089.13 2950.88C4111.75 2958.38 4162.88 2981 4201.88 3000.5C4241 3020 4309.38 3051.63 4353.75 3070.38C4437.13 3105.75 4568 3171.88 4619.75 3204.13C4635.63 3214.75 4664.88 3229.75 4684.5 3238C4703.25 3247 4764.13 3285.38 4819.75 3324.5C4874.63 3362.75 4939.25 3407.13 4962.5 3422.88C5004.63 3451.5 5066.25 3511.63 5066.25 3524.38C5066.25 3528.13 5085 3543.88 5108.38 3559.75C5136.88 3579.25 5161.75 3606.25 5188 3645.38C5209 3676.88 5236.88 3716 5250.38 3732.5C5304.5 3799.5 5327.75 3883.63 5318.75 3982.88C5311.25 4061 5273.75 4142.13 5230.13 4170.75C5213.63 4182 5172.25 4218.13 5138.38 4251.13C5049 4338.38 5012.13 4367.63 4947.5 4403.75C4840 4464.63 4809.25 4472.88 4684.5 4472.88C4623.63 4472.13 4561.13 4474.38 4545.38 4477.38C4529.63 4479.63 4495.75 4478.13 4470.25 4472.88C4357.5 4449.63 4165.13 4391 4111 4363.13C4090.63 4353.38 4090.63 4353.38 4085.38 4388.75C4083.13 4408.25 4072.63 4438.25 4062.13 4455.63C4052.38 4472.88 4044.13 4492.38 4044.13 4499.13C4044.13 4520.25 3944.13 4681.88 3890 4748.75C3828.38 4825.38 3804.38 4849.38 3751.75 4888.5C3728.38 4905 3708.13 4921.63 3705.88 4923.88C3687.88 4947.13 3489.38 5032.88 3357.13 5074.13C3312 5088.38 3199.25 5090.63 3124.13 5078.63C3036.25 5064.38 2987.38 5038.88 2920.5 4973.5C2876.88 4930.63 2859.63 4907.25 2834.75 4855.5C2789.63 4760.75 2781.38 4718.63 2781.38 4600.63C2781.38 4524.75 2785.13 4484.13 2796.5 4439C2804.75 4406 2811.5 4370.63 2811.5 4360.13C2811.5 4339.13 2832.5 4233.13 2838.5 4223.38C2840.75 4220.38 2845.25 4201.5 2849 4181.25C2863.38 4106.13 2874.63 4067.75 2906.88 3984.38C2925.75 3937 2949 3874.63 2959.5 3845.25C2969.25 3816.75 2985.88 3776.88 2996.38 3757.38C3006.88 3737.88 3021.13 3704 3029.38 3682.25C3043.75 3642.38 3081.25 3549.13 3100.13 3507.13C3106.13 3494.25 3118.13 3462.75 3127.13 3435.63C3151.25 3367.25 3212.88 3244.75 3251.88 3190.63C3270 3165.13 3291.75 3126.75 3300 3105.75C3308.25 3084.63 3319.5 3059.13 3325.5 3050.13C3331.63 3041.13 3339.88 3020.75 3345.13 3005C3355.63 2971.88 3396.25 2908.75 3430 2873.5C3445.13 2857.75 3460.13 2849.38 3474.38 2849.38C3490.13 2849.38 3495.38 2845.63 3495.38 2834.38C3495.38 2824.63 3506 2814.88 3527.75 2805.13ZM3569.88 2890.75C3529.25 2876.5 3520.25 2876.5 3511.25 2892.25C3505.25 2903.5 3502.25 2904.25 3494.63 2896C3489.38 2891.5 3480.38 2887 3475.13 2887C3445.88 2887 3352.63 3020.75 3352.63 3062.88C3352.63 3075.63 3396.25 3083.13 3415 3073.38C3436 3062.13 3726.88 3057.63 3846.38 3066.63C3998.25 3078.63 4029 3082.38 4029 3091.38C4029 3097.5 3992.25 3098.25 3911 3094.5C3763 3087.63 3550.25 3087.63 3429.25 3094.5L3336.88 3099.75L3321 3130.5C3312.75 3147.75 3288 3188.38 3266.25 3221.5C3210.63 3307.13 3158 3415.38 3136.13 3489C3131.63 3503.25 3109.88 3558.13 3087.25 3612.25C3065.5 3665.63 3044.5 3719.75 3041.5 3731.75C3038.5 3744.63 3029.38 3763.38 3021.88 3773.88C2997.13 3808.5 2914.5 4047.5 2885.88 4164.75C2825 4417.25 2815.25 4481.88 2815.25 4619.38C2815.25 4726.13 2816.75 4735.13 2836.25 4781C2867.88 4854.63 2903.88 4911 2929.5 4927.63C2942.25 4935.88 2954.25 4947.88 2956.5 4954.63C2958 4960.63 2980.63 4980.25 3006.13 4998.25C3042.25 5022.25 3066.25 5032.75 3110.63 5041.13C3198.5 5058.38 3309 5058.38 3363.88 5041.13C3515.75 4993 3563.13 4972.63 3605.13 4935.88C3681.13 4871.25 3739.75 4815.63 3763 4786.25C3776.5 4769 3800.63 4741.13 3815.63 4724.63C3894.5 4636.75 3957.63 4490.88 3984 4333.88C3989.25 4304.5 3995.25 4276 3999 4269.88C4007.25 4253.38 4028.25 4251.88 4034.38 4267.63C4041.13 4285.75 4052.38 4294 4113.25 4326.25C4165.13 4354.13 4221.5 4373.63 4292.13 4390.25C4314.63 4395.5 4355.25 4405.25 4382.25 4413.5C4409.38 4421 4443.13 4429.25 4457.5 4431.5C4502.5 4439 4752.88 4450.38 4780.63 4445.75C4823.5 4439 4969.25 4363.88 5012.88 4326.25C5034.63 4307.5 5058.75 4288.75 5066.25 4285C5073.75 4280.5 5090.25 4255.63 5103.88 4227.88C5116.63 4200.75 5135.38 4164.75 5145.88 4148.13C5173 4105.38 5185 4058.75 5193.25 3968.5C5199.25 3900.13 5198.5 3885.13 5185.75 3849.75C5178.25 3827.25 5165.5 3801.75 5157.25 3793.38C5149.63 3784.38 5141.38 3768.63 5138.38 3757.38C5128.63 3714.5 4965.5 3528.88 4918.25 3506.38C4904.63 3499.5 4870.88 3474.75 4842.25 3450.75C4813.75 3426.63 4748.38 3383 4697.25 3353C4646.13 3323.63 4575.5 3282.38 4540.13 3261.25C4456 3211 4389.88 3177.88 4327.38 3154.63C4299.63 3144 4264.25 3125.25 4248.5 3113.25C4233.5 3100.5 4208.63 3088.38 4194.38 3086.13C4180.13 3083.13 4153.13 3074.88 4134.25 3067.38C4115.5 3059.88 4051.63 3035.88 3991.5 3014.75C3931.38 2993 3860.75 2967.38 3833.63 2957.63C3806.63 2948.63 3771.25 2938.13 3754.75 2935.13C3705.13 2926.88 3603.63 2902.75 3569.88 2890.75Z" />
		<path id="Layer" fill-rule="evenodd" class="shp0" d="M3672 3180.88C3454.88 3188.38 3375.13 3202.63 3375.13 3232.75C3375.13 3250 3375.13 3250 3403 3239.5C3477.38 3211 3788.5 3195.13 3991.5 3209.5C4141.75 3220 4237.25 3230.5 4262 3239.5C4293.63 3251.5 4344.75 3256 4344.75 3247.75C4344.75 3244 4338.75 3240.25 4331.25 3240.25C4322.88 3240.25 4297.38 3233.5 4272.63 3224.5C4162.13 3186.13 3957.63 3171.13 3672 3180.88L3672 3180.88Z" />
		<path id="Layer" fill-rule="evenodd" class="shp0" d="M4119.25 3332.75C4117 3335 4047.88 3341 3965.13 3344.75C3825.38 3352.25 3712.63 3361.25 3604.38 3372.5C3579.63 3375.5 3549.5 3378.5 3536.75 3379.25C3524.75 3380.75 3509.75 3381.5 3505.25 3382.25C3490.13 3383.75 3493.13 3413.13 3509 3413.13C3515.75 3413.13 3572.88 3406.38 3634.5 3398.88C3780.25 3380 4106.5 3359.75 4287.63 3359C4413.88 3358.25 4430.38 3359.75 4439.38 3371C4452.25 3389.13 4504.88 3385.25 4508.63 3366.5C4510.13 3357.5 4504.13 3350 4489.75 3344.75C4468 3336.5 4126 3325.13 4119.25 3332.75L4119.25 3332.75Z" />
		<path id="Layer" fill-rule="evenodd" class="shp0" d="M4002.75 3519.13C3911.75 3522.13 3803.63 3529.63 3763 3536.38C3721.63 3543.13 3676.5 3548.38 3663 3548.38C3642 3548.38 3637.5 3551.38 3639.75 3561.13C3642.75 3577.75 3671.25 3577 3811.13 3558.13C3964.38 3537.13 4525.13 3540.13 4655.13 3562.75C4703.25 3571 4715.25 3576.25 4709.25 3586.75C4706.25 3590.5 4718.25 3593.5 4734.75 3593.5C4759.63 3593.5 4765.63 3590.5 4765.63 3580C4765.63 3571.75 4756.63 3561.88 4745.38 3556.63C4708.5 3540.13 4584.5 3526.63 4424.38 3522.13C4337.25 3519.88 4244 3516.88 4217 3516.13C4189.88 3515.38 4093.63 3516.88 4002.75 3519.13L4002.75 3519.13Z" />
		<path id="Layer" fill-rule="evenodd" class="shp0" d="M4250.75 3707C4096 3711.5 3841.88 3729.5 3792.25 3740.13C3781.75 3742.38 3765.25 3745.38 3754.75 3747.63C3744.25 3749.88 3735.88 3756.63 3735.88 3762.63C3735.88 3776.13 3724.63 3776.88 3876.5 3759.63C4176.38 3725 4658.88 3718.25 4765.63 3747.63C4804.75 3758.13 4819 3758.88 4836.25 3752.13C4852.75 3745.38 4855.75 3741.63 4849 3733.25C4828 3707.75 4597.25 3698 4250.75 3707L4250.75 3707Z" />
		<path id="Layer" fill-rule="evenodd" class="shp0" d="M4459 3879.88C4370.25 3883.63 4216.25 3893.38 4117 3902.38C4017 3911.38 3920.13 3919 3901.25 3919.75C3868.25 3920.5 3863.75 3922.75 3863.75 3940C3863.75 3948.25 3929.88 3946 4002.75 3936.25C4208.63 3908.38 4836.25 3894.88 4933.25 3915.88C4976.88 3925.75 4976.88 3925.75 4963.25 3940.75C4949.75 3956.5 4949.75 3956.5 4979.88 3951.25C5016.63 3944.5 5018.88 3942.25 5009.13 3925.75C4995.63 3905.38 4904.63 3887.38 4773.13 3879.13C4704.75 3875.38 4642.38 3872.38 4634.13 3873.13C4625.88 3873.13 4546.88 3876.88 4459 3879.88L4459 3879.88Z" />
		<path id="Layer" fill-rule="evenodd" class="shp0" d="M4757.38 4100.13C4749.88 4108.38 4171.13 4125.63 4138.75 4118.88C4117 4114.38 4116.25 4132.38 4136.5 4145.88C4153.13 4156.5 4170.38 4157.25 4281.63 4150.38C4351.5 4146.63 4519.13 4139.13 4654.38 4133.88C4889.63 4124.88 4901.63 4124.88 4926.5 4138.38C4948.25 4150.38 4955.75 4151.13 4971.5 4143.63C4994.13 4133.88 4991.13 4115.88 4966.25 4109.13C4943 4102.38 4762.63 4094.88 4757.38 4100.13L4757.38 4100.13Z" />
		<path id="Layer" fill-rule="evenodd" class="shp0" d="M4575.5 4282.75C4574.75 4282.75 4496.5 4285 4401.13 4287.25C4306.38 4289.5 4227.5 4291.75 4227.5 4291.75C4226.75 4292.5 4224.5 4297 4222.25 4302.25C4219.25 4310.5 4273.38 4312 4516.88 4311.25C4680.75 4310.5 4816 4309 4818.25 4308.25C4819.75 4308.25 4816.75 4303 4812.25 4297.75C4805.5 4291.75 4765.63 4287.25 4689.75 4285C4627.38 4282.75 4576.25 4282 4575.5 4282.75L4575.5 4282.75Z" />
		<path id="Layer" fill-rule="evenodd" class="shp0" d="M3227.88 3023.75C3245.13 3004.25 3257.13 3002.75 3270 3018.5C3278.25 3028.25 3276 3034.38 3257.88 3053.13C3236.88 3075.63 3236.88 3076.38 3250.38 3086.88C3263.88 3096 3263.88 3099.75 3254.88 3117.75C3248.88 3129.75 3230.88 3153.13 3215.13 3170.38C3195.5 3190.63 3186.5 3205.63 3189.5 3213.25C3194.75 3225.25 3175.25 3265.75 3149 3299.63C3140.63 3309.38 3134.63 3320.63 3134.63 3324.38C3134.63 3332.75 3011.38 3565 2985.13 3604.75C2974.63 3621.38 2954.25 3649.88 2940 3668.63C2925.75 3687.5 2906.88 3719.75 2897.13 3740.88C2887.38 3762.63 2876.88 3781.38 2873.13 3782.13C2861.13 3787.38 2776.13 3934.75 2770.13 3960.25C2767.88 3973.88 2757.38 3990.38 2746.88 3996.38C2737 4003.13 2719 4029.38 2707 4054.25C2694.25 4079.75 2670.13 4126.38 2652.88 4157.25C2635.63 4188 2611.5 4233.88 2598.75 4258.63C2543.88 4368.38 2422.13 4578.13 2373.25 4645.75C2359 4666 2343.25 4689.38 2239.5 4841.13C2201.88 4896.75 2162.88 4950.13 2153.13 4959.88C2143.25 4969.63 2135 4980.25 2135 4984C2135 4992.25 1818.63 5310.88 1774.25 5346.25C1732.88 5380 1686.38 5422.13 1631.5 5474.75C1567.63 5536.38 1399.25 5671.63 1248.13 5782.13C1233.88 5792.63 1210.63 5811.5 1196.25 5825C1182.75 5837.75 1167 5848.25 1162.5 5848.25C1157.25 5848.25 1130.13 5859.63 1102.38 5873.88C1073.75 5888.13 1042.25 5899.38 1031 5899.38C1020.38 5899.38 985.88 5906.13 955 5915.13C903.88 5929.5 897.88 5930.25 889.63 5919C882.13 5908.38 875.38 5908.38 839.25 5915.88C795 5925 762.63 5918.25 699.5 5885.88C622.88 5846.75 534.88 5722.75 522.88 5636.38C518.38 5605.5 515.38 5601 498 5598.75C466.5 5595 470.25 5579.25 506.38 5563.38C525.13 5555.13 542.38 5545.38 544.63 5540.88C547.63 5536.38 556.63 5532.63 565.75 5532.63C574 5532.63 600.25 5521.38 623.63 5507.13C646.88 5492.75 694.25 5466.5 729.5 5448.5C764.88 5429.63 821.25 5393.63 855.88 5368C890.38 5341.75 944.5 5305.63 976.13 5286.88C1007.63 5268 1046 5243.25 1060.25 5232C1074.5 5220.75 1103.88 5202.63 1124.13 5191.38C1237.63 5131.25 1383.5 5035.88 1450.38 4977.25C1481.13 4950.88 1524 4917.88 1546.5 4904.25C1568.38 4890 1608.88 4859.25 1637.5 4835.13C1688.63 4792.25 1869.75 4617.88 1926.88 4555.5C1944.13 4537.5 1969.63 4512 1984 4499.13C1998.25 4487.13 2020 4464.63 2032.13 4450.38C2044.88 4436 2093 4386.38 2138 4340.63C2232.75 4245.88 2330.5 4136.13 2355.25 4096.38C2371.75 4069.25 2416.13 4016.63 2496.5 3928.75C2519.13 3903.13 2545.38 3870.88 2554.38 3856.5C2562.75 3842.25 2587.5 3813 2608.5 3792.63C2629.63 3771.63 2663.38 3731 2682.25 3702.5C2714.5 3654.38 2779.13 3565 2788.88 3555.88C2797.25 3548.38 2891.88 3430.38 2912.88 3401.88C2925 3385.38 2941.5 3353 2949 3330.5C2956.5 3307.88 2969.25 3282.38 2976.13 3274.13C2983.63 3265.75 2997.13 3245.5 3006.88 3229C3046 3162.13 3135.38 3083.13 3161 3093C3167.75 3095.25 3179.75 3086.13 3192.5 3068.88C3203.75 3053.88 3219.63 3033.63 3227.88 3023.75ZM2783.63 3621.38C2786.63 3614.5 2787.38 3608.5 2786.63 3608.5C2784.38 3608.5 2745.38 3660.38 2698.75 3725C2680.75 3749.88 2649.13 3788.88 2628.13 3812.25C2576.25 3868.63 2522.88 3932.5 2486 3979.13C2469.5 4000.88 2452.25 4021.13 2447.75 4025.63C2442.38 4029.38 2422.13 4053.5 2402.63 4078.25C2326 4173.75 2238.75 4270.75 2101.25 4412C1777.25 4745.75 1677.38 4840.38 1575.13 4913.25C1533.75 4943.38 1472.13 4990.75 1439 5018.5C1405.25 5047.13 1360.13 5080.13 1338.38 5092.88C1317.25 5105 1282 5126.75 1260.88 5141C1239.88 5154.63 1200.75 5177.88 1173.75 5192.88C1114.38 5223.75 1052.75 5263.5 1010.63 5297.38C993.38 5310.88 977.63 5322.13 974.63 5322.13C967 5322.13 860.38 5394.38 823.5 5424.38C807 5437.13 764.13 5462.75 728 5479.25C692 5496.5 660.38 5513.88 658.13 5517.63C655.88 5521.38 637.13 5534.13 616.88 5545.38C595.75 5556.63 579.25 5570.25 579.25 5574.75C579.25 5579.25 574 5587.5 568 5592.75C555.88 5602.5 552.88 5643.13 563.5 5658.88C567.25 5665.63 580.75 5668.63 601.75 5667.13C622.88 5665.63 635.63 5667.88 637.88 5673.88C639.38 5678.38 637.13 5683 631.88 5683C627.38 5683 625.88 5686.75 628.88 5691.25C631.88 5696.5 645.38 5698 661.13 5695.75C678.5 5693.5 694.25 5696.5 703.25 5702.5C712.25 5709.25 727.25 5711.5 746.88 5707.75C767.88 5704.75 775.38 5705.5 771.63 5711.5C768.63 5716 754.38 5722 738.63 5724.25C723.5 5726.5 699.5 5734 686 5740.13C672.38 5746.13 652.88 5750.63 643.13 5750.63C619.88 5750.63 619.88 5760.38 640.13 5789.63C661.13 5819 721.25 5855.75 776.88 5873.88C817.5 5887.38 822.75 5887.38 869.38 5876.13C917.5 5864.88 1039.25 5802.5 1023.38 5797.13C1016.63 5794.88 998.63 5801.75 943.75 5826.5C935.5 5830.25 915.25 5834.75 897.88 5836.25C881.38 5837.75 856.63 5844.5 843 5851.25C829.5 5858.88 807.75 5863.38 795 5861.88L770.88 5859.63L804.75 5839.25L838.5 5819L799.5 5823.5C773.13 5826.5 759.63 5825 759.63 5819.75C759.63 5815.25 765.63 5810 773.13 5808.5C864.88 5783.63 886.63 5779.88 898.63 5785.88C920.5 5798.63 974.63 5785.13 1003.13 5759.63C1028 5737.75 1049.75 5729.5 1154.25 5701.75C1179 5695 1209.88 5684.5 1223.38 5677.63C1249.63 5664.88 1291 5625.13 1284.25 5619C1282 5616.75 1257.13 5623.63 1228.63 5634.13C1113.63 5677.63 1095.63 5683.75 1091.88 5679.13C1085.75 5673.88 1109.13 5657.38 1161.75 5631.13C1209.88 5607 1259.38 5593.5 1299.25 5592.75C1317.25 5592.75 1334.63 5584.5 1357.88 5565.75C1418.75 5515.38 1397.75 5513.88 1282 5560.38C1245.13 5575.5 1209.13 5592 1203 5596.5C1191 5606.25 1173 5603.25 1173 5592C1173 5580.75 1270.75 5535.63 1355.63 5507.13C1400 5492 1439.75 5480 1443.63 5480C1451.13 5480 1527 5429.63 1582.63 5386.75C1618 5359.75 1721.63 5269.63 1760 5232C1775 5217.75 1796.88 5197.38 1808.88 5186.88C1839.63 5159.88 1887 5101.25 1879.5 5098.25C1872.75 5096 1759.25 5123 1725.38 5135.75C1713.38 5140.25 1681.88 5153.88 1655.5 5165.88C1605.13 5188.38 1586.38 5192.13 1586.38 5179.38C1586.38 5171.88 1660.75 5134.25 1726.88 5109.5C1787.75 5086.13 1862.25 5072.63 1879.5 5081.63C1892.25 5088.38 1898.25 5086.13 1920.88 5061.38C1935.13 5045.63 1947.13 5028.25 1947.13 5022.25C1947.13 5007.25 1896 5017 1791.5 5052.38C1687.88 5086.88 1657.75 5090.63 1702.88 5062.88C1736.75 5041.88 1846.38 5005.75 1932.13 4987.75C1975 4978.75 1995.25 4970.38 2015.5 4951.63C2046.38 4924.63 2143.25 4793 2166.63 4747.25C2175.63 4730.63 2199.63 4698.38 2220.75 4675C2254.5 4638.25 2358.25 4468.38 2351.5 4460.88C2350 4459.38 2291.38 4487.13 2222.25 4521.75C2096.75 4584.88 2062.88 4597.63 2082.38 4574.38C2093 4561.5 2144 4532.25 2256.75 4475.88C2315.38 4445.88 2342.5 4436 2356 4439.75C2371.75 4443.5 2377.75 4438.25 2401.13 4404.5C2433.38 4356.38 2435.63 4346.63 2408.63 4371.38C2397.38 4381.88 2382.25 4390.25 2375.5 4390.25C2361.25 4390.25 2307.88 4416.5 2274.13 4439.75C2241.75 4461.63 2169.63 4495.38 2154.63 4495.38C2127.5 4495.38 2150.13 4475.13 2218.5 4438.25C2257.5 4417.25 2319.13 4381.13 2356 4357.88C2392.88 4334.63 2425.13 4314.25 2428.13 4313.5C2432.63 4311.25 2483.75 4238.38 2554.38 4132.38C2565 4117.38 2577 4104.63 2581.5 4104.63C2594.25 4104.63 2682.25 3957.25 2673.88 3949.75C2668.63 3944.5 2545.38 4097.13 2503.38 4161C2496.5 4170 2471 4200.75 2444.75 4229.38C2419.13 4257.13 2398.13 4282.75 2398.13 4286.5C2398.13 4289.5 2394.38 4292.5 2389.88 4292.5C2377 4292.5 2384.63 4279.75 2447.75 4193.25C2480.75 4149.63 2525.88 4087.25 2548.38 4055.75C2622.88 3950.5 2716.75 3841.5 2733.25 3841.5C2742.38 3841.5 2785.13 3768.63 2806.25 3718.25C2811.5 3705.5 2810 3705.5 2798.75 3714.5C2776.88 3731.75 2752.13 3761.88 2751.38 3770.88C2751.38 3775.38 2744.63 3785.13 2735.5 3793.38C2726.5 3801 2706.25 3828.75 2689 3854.25C2672.38 3879.88 2651.38 3904.63 2641.63 3909.88C2631.88 3914.38 2622.88 3923.5 2620.63 3928C2613.75 3946 2524.38 4059.5 2516.88 4059.5C2508.63 4059.5 2511.63 4053.5 2552.13 3995.63C2595.75 3933.25 2604.75 3916 2589.75 3921.25C2571 3928.75 2576.25 3919 2622.13 3858.13C2679.25 3782.13 2777.63 3638.63 2783.63 3621.38Z" />
		<path id="Layer" fill-rule="evenodd" class="shp0" d="M2192.13 4574.38C2168.13 4588.63 2146.25 4600.63 2143.25 4600.63C2141 4600.63 2117 4616.38 2090 4635.25C2062.88 4654 2015.5 4686.38 1984.75 4706.63C1934.38 4739.63 1930.63 4743.5 1950.13 4743.5C1974.25 4743.5 2018.5 4719.38 2082.38 4672.75C2105.75 4655.5 2156.88 4625.5 2197.38 4604.38C2237.25 4584.13 2269.63 4563.88 2268.13 4559.25C2262.75 4543.5 2235 4548.75 2192.13 4574.38L2192.13 4574.38Z" />
		<path id="Layer" fill-rule="evenodd" class="shp0" d="M1582.63 5276.38C1570.63 5279.38 1553.25 5286.13 1545 5290.63C1514.25 5307.13 1382.63 5359.75 1349.63 5368C1318 5376.25 1294 5392.88 1302.25 5401.88C1308.25 5407.13 1394.75 5379.25 1503.75 5337.25C1555.5 5317.63 1605.13 5298.88 1614.88 5295.88C1624 5293.63 1631.5 5286.13 1631.5 5280.13C1631.5 5268.75 1618.63 5268 1582.63 5276.38L1582.63 5276.38Z" />
		<path id="Layer" fill-rule="evenodd" class="shp0" d="M2260.5 3147C2249.25 3158.38 2256 3171.13 2276.38 3178.63C2289.13 3183.13 2337.25 3183.13 2405.63 3179.38C2626.63 3165.88 2781.38 3169.63 2781.38 3188.38C2781.38 3198.13 2824.25 3196.63 2830.25 3187.63C2839.25 3173.38 2820.5 3160.63 2777.63 3150.13C2745.38 3142.5 2693.5 3141.75 2538.63 3146.25C2298.88 3153.88 2300.38 3153.13 2281.63 3147C2273.38 3144 2263.5 3144 2260.5 3147L2260.5 3147Z" />
		<path id="Layer" fill-rule="evenodd" class="shp0" d="M2383 3266.5C2273.38 3279.38 2179.38 3301.88 2169.63 3317.63C2165.13 3324.38 2163.63 3331.25 2165.13 3333.5C2167.38 3335 2199.63 3330.5 2236.5 3322.13C2347.75 3298.13 2382.25 3293.63 2480.75 3289.13C2592.75 3284.63 2674.63 3295.88 2692 3317.63C2707 3336.5 2751.38 3329.75 2751.38 3308.63C2751.38 3271.13 2543.88 3247 2383 3266.5Z" />
		<path id="Layer" fill-rule="evenodd" class="shp0" d="M2054.63 3516.88C2052.38 3522.13 2053.13 3528.88 2055.38 3531.13C2063.63 3539.38 2540.88 3537.88 2538.63 3529.63C2537.13 3525.88 2521.38 3517.63 2502.63 3512.38C2456 3498.75 2059.88 3502.5 2054.63 3516.88Z" />
		<path id="Layer" fill-rule="evenodd" class="shp0" d="M1935.13 3700.25C1921.63 3721.25 1951.63 3725 2144.75 3726.5C2326 3727.25 2340.25 3726.5 2319.88 3716C2303.38 3707 2264.25 3704 2154.63 3701.75C2075.63 3699.5 1994.5 3697.25 1975 3695.75C1955.38 3694.25 1937.38 3696.5 1935.13 3700.25Z" />
	</g>
	<text id="Created by Alex Muravev" style="transform: matrix(0.125,0,0,0.125,0,6351.875)" >
		<tspan x="0" y="0" class="txt1">Created by Alex Muravev</tspan>
	</text>
	<text id="from the Noun Project" style="transform: matrix(0.125,0,0,0.125,0,6352.5)" >
		<tspan x="0" y="0" class="txt1">from the Noun Project</tspan>
	</text>
</svg>