<svg xmlns="http://www.w3.org/2000/svg" viewBox="0 0 270 279" width="150" height="155">
	<style>
		tspan { white-space:pre }
		.shp0 { fill: #375c3d } 
		.txt1 { font-size: 5px;fill: #000000;font-family: "' Helvetica  Neue'" } 
	</style>
	<g id="Layer">
		<path id="Layer" fill-rule="evenodd" class="shp0" d="M201.3 146C192.58 167.21 178.99 172.84 174.5 183.9C170.76 193.11 176.9 212.84 164.61 217.22C164.34 218.68 163.72 219.93 162.86 221.01C167.11 224.9 167.02 230.84 163.12 235.06C164.36 241.37 161.75 248.22 156.2 251.69C148.77 256.34 137.7 255.69 129.3 255.49C125.23 255.4 120.46 255.39 115.96 254.64C115.7 257.36 118.24 260.06 119.4 260.7C120.5 261.32 123.79 261.27 125.03 261.38C131.85 262 139.03 261.85 143.13 261.41C146.21 261.08 155.02 259.01 153.68 253.82C153.19 251.95 159.03 256.41 149.88 261.05C143.95 264.05 137.11 264.19 130.62 264.05C126.16 263.96 116.62 264.89 113.47 260.78C111.89 258.71 112.21 255.39 114.52 254.37C101.59 251.71 99.33 242.76 103.59 238.13C103.98 237.7 104.62 238.19 104.3 238.68C98.37 247.77 111.64 252 118.18 252.64C125.73 253.38 143.75 253.95 151.06 251.93C158.23 249.96 162.07 243.72 161.51 236.58C154.36 242.43 143.27 241.92 134.61 241.92C125.47 241.92 113.4 242.88 105.23 238.04C99.88 234.87 97.2 228.12 102.58 223.63C102.96 223.32 103.51 223.89 103.17 224.24C95.28 232.52 108.24 238.38 114.72 239.22C124.37 240.47 142.07 240.86 151.6 239.03C158.63 237.67 170.64 229.42 162.23 221.71C157.34 226.72 146.59 227.55 141.03 228.15C130.04 229.35 116.15 229.68 105.91 224.87C102.19 223.12 98.44 218.7 98.4 214.59C94.27 211.66 91.82 206.05 90.75 201.35C90.04 198.2 90.62 195.32 91.31 192.22C92.56 186.62 91.8 182.4 88.62 177.59C81.92 167.46 70.35 158.84 64.79 133.85C61.41 118.69 62.74 102.48 69.24 88.31C90.21 42.65 145.3 28.32 180.24 63.24C201 83.99 212.91 117.74 201.3 146ZM200.81 134.64C206.18 106.1 191.9 75.12 168.75 58.21C145.52 41.25 110.85 44.71 90.48 64.67C80.28 74.66 71.64 86.77 68.13 100.74C62.13 124.56 70.47 149.86 82.33 164.74C86.05 169.4 90.34 173.76 92.99 179.18C95.79 184.9 94.66 189.16 93.6 195.13C92.67 200.37 94.89 207.66 98.93 211.97C99.42 210.89 100.28 209.89 101.57 209.03C102.06 208.7 102.66 209.4 102.34 209.86C101.41 211.16 100.86 212.37 100.6 213.5C100.93 213.75 101.26 213.98 101.6 214.18C102.52 214.74 101.83 216.3 100.81 215.91C100.7 215.87 100.6 215.81 100.49 215.77C101.24 221.17 109.39 224.11 114.73 225.06C125.54 226.99 158.09 227.91 161.97 217.72C160.8 217.34 160.83 215.22 162.31 214.8C161.97 212.32 160.13 209.93 157.3 208.46C153.79 206.64 149.63 206.67 145.84 205.75C145.41 205.65 145.43 205.02 145.88 204.98C152.09 204.34 163.27 206.66 164.63 214C171.53 210.44 169.33 198.2 169.47 192.05C169.99 169.58 194.99 165.57 200.81 134.64Z" />
		<path id="Layer" class="shp0" d="M134.4 188.59C135.91 161.43 141.16 160.02 151.18 147.75C152.28 146.41 153.19 145.01 153.97 143.58C158.26 143.6 162.29 141.24 164.08 136.29C164.36 135.52 163.2 135.17 162.82 135.8C160.99 138.76 157.99 140.97 154.71 142.09C155.94 139.39 156.68 136.5 157.01 133.36C157.11 132.37 155.53 131.97 155.26 132.97C152.3 144.3 145.68 148.59 141.02 155.11C140.91 155.04 140.78 154.99 140.63 154.96C139.23 154.69 140.88 143.06 141.15 141.48C141.28 140.72 140.29 140.4 139.99 141.13C138.52 144.79 137.75 148.47 137.88 152.43C137.94 154.21 137.97 156.39 139.67 157.12C135.31 164.01 133.32 171.84 132.71 179.91C128.37 161.98 122.98 160.82 116.71 151.4C119.32 147.72 120.26 142.36 118.68 138.19C118.51 137.74 117.7 137.85 117.71 138.36C117.82 143.57 118.07 145.35 115.94 150.18C114.38 147.64 113.15 144.9 112.44 141.75C112.26 140.96 111.04 141.21 111.07 141.98C111.32 149.23 115.35 154.53 119.55 159.83C114.86 159.02 110.3 159.2 106.3 156.08C105.93 155.8 105.43 156.25 105.7 156.64C108.99 161.21 115.29 162.15 120.53 161.06C123.41 164.71 126.24 168.43 127.85 172.86C131.57 183.06 132.27 193.49 132.66 204.04C127.88 203.45 122.76 204.01 118.09 204.66C114.08 205.23 107.78 205.64 104.81 208.72C104.79 208.74 104.82 208.78 104.85 208.78C109.28 208.66 113.83 206.88 118.25 206.26C123.07 205.58 127.9 205.75 132.71 205.43C132.84 209.03 132.94 212.65 133.13 216.27C133.15 216.65 133.7 216.7 133.79 216.33C134.64 212.73 135.12 208.92 135.3 205.04C135.36 204.93 135.36 204.8 135.31 204.68C135.53 199.36 135.19 193.91 134.4 188.59Z" />
		<path id="Layer" class="shp0" d="M179.2 90.73C179.32 89.83 177.97 89.38 177.52 90.16C172.58 98.51 166.09 104.77 157.26 108.9C144.38 114.94 133.72 120.2 128.14 133.05C126.08 110.78 98.62 94.85 79.84 98.96C79.4 99.06 80.55 99.32 81.07 99.46C79.82 101.18 85.87 116 86.82 127.22C87.52 135.4 87.44 143.62 90.2 151.47C93.9 162.03 105.94 175.73 118.59 170.33C118.97 170.17 118.85 169.67 118.46 169.65C110.82 169.16 104.17 167.49 98.92 161.46C85.57 146.14 94.05 121.84 83 99.96C88 101.16 93.16 101.74 98.1 103.41C123.26 111.91 123.78 129.99 126.31 138.43C122.63 153.54 133.26 159.71 132.1 157.78C121.63 140.41 132.24 124.03 148.6 115.69C155.4 112.23 168.84 108.04 176.48 97.13C176.32 106.1 177.64 119.01 173.56 135.33C169.77 150.51 161.1 162.04 145.56 165.91C144.48 166.18 144.64 167.87 145.78 167.88C160.78 167.9 171.38 153.1 175.4 140.23C179.96 125.66 181.48 107.76 178.76 92.62C178.95 92 179.11 91.37 179.2 90.73Z" />
		<path id="Layer" class="shp0" d="M35.58 172.82C46.1 170.05 56.39 166.25 64.99 159.42C65.8 158.78 65.38 157.04 64.19 157.53C54.35 161.6 44.89 166.69 34.91 170.48C33.63 170.96 34.22 173.18 35.58 172.82Z" />
		<path id="Layer" class="shp0" d="M25.9 123.43C32.38 125.34 39.17 125.99 45.9 125.55C50 125.29 54.38 125.13 57.29 121.91C57.6 121.57 57.46 120.81 56.9 120.87C46.49 121.82 36.76 122.56 26.31 121.77C25.38 121.7 24.92 123.14 25.9 123.43Z" />
		<path id="Layer" class="shp0" d="M16.05 83.38C27.93 90.45 40.44 95.8 54.2 97.75C55.62 97.95 56.12 95.68 54.73 95.29C41.83 91.63 28.99 87.62 17.04 81.47C15.8 80.84 14.87 82.68 16.05 83.38Z" />
		<path id="Layer" class="shp0" d="M66.73 71.99C68.07 73.17 69.88 71.37 68.69 70.03C62.73 63.35 57.15 56.1 50.43 50.15C49.46 49.29 47.46 50.18 48.3 51.55C53.08 59.41 59.89 65.96 66.73 71.99Z" />
		<path id="Layer" class="shp0" d="M90.99 46.06C87.8 40.56 84.97 34.88 81.48 29.56C80.85 28.6 79.16 29.24 79.57 30.4C81.69 36.42 84.84 41.88 88.03 47.39C89.07 49.19 92.03 47.87 90.99 46.06Z" />
		<path id="Layer" class="shp0" d="M126.38 33.59C126.21 28.34 125.31 23.36 124.07 18.27C123.79 17.15 121.97 17.38 122.04 18.56C122.34 23.77 123 28.79 124.39 33.84C124.68 34.93 126.42 34.77 126.38 33.59Z" />
		<path id="Layer" class="shp0" d="M158.22 34.9C160.62 25.79 162.93 16.43 164.78 7.19C165 6.11 163.49 5.37 162.92 6.43C158.47 14.67 155.81 25.12 155.58 34.49C155.54 35.99 157.82 36.4 158.22 34.9Z" />
		<path id="Layer" class="shp0" d="M191.86 53.55C195.16 49.78 198.82 46.06 201.21 41.6C201.56 40.96 200.71 40.21 200.13 40.66C196.05 43.82 192.94 48.17 189.7 52.13C188.64 53.43 190.79 54.77 191.86 53.55Z" />
		<path id="Layer" class="shp0" d="M229.69 64.98C220.18 68.18 211.95 74.18 204.68 80.97C203.63 81.95 204.8 83.77 206.02 82.85C213.92 76.91 222.57 72.26 230.95 67.07C232.2 66.29 230.91 64.57 229.69 64.98Z" />
		<path id="Layer" class="shp0" d="M239.93 96.89C231.25 100.78 221.64 101.49 213.02 105.34C212.1 105.75 212.56 107.29 213.53 107.23C218.78 106.95 224.03 105.47 229.09 104.13C233.27 103.03 237.53 101.69 240.86 98.84C241.7 98.13 241.17 96.33 239.93 96.89Z" />
		<path id="Layer" class="shp0" d="M253.47 130.1C254.78 129.98 254.86 128.04 253.56 127.82C247.82 126.83 242.27 126.77 236.47 127.06C229.17 127.44 220.76 127.71 214.03 130.72C212.97 131.2 213.7 132.62 214.61 132.68C220.45 133.07 226.5 131.77 232.33 131.33C239.38 130.8 246.44 130.77 253.47 130.1Z" />
		<path id="Layer" class="shp0" d="M208.23 152.4C207.08 152.47 206.92 153.85 207.77 154.42C212.55 157.65 221.07 159.13 226.75 158.96C227.67 158.93 228.23 157.57 227.27 157.11C223.38 155.23 212.34 152.14 208.23 152.4Z" />
		<path id="Layer" class="shp0" d="M225.68 193.89C222.1 189.22 217.66 185.51 212.78 182.29C208.76 179.64 203.83 176.18 198.86 176.15C198.49 176.15 198.13 176.56 198.43 176.9C201.7 180.6 207.01 182.67 211.06 185.43C215.6 188.53 219.84 192.05 224.3 195.28C225.09 195.85 226.28 194.68 225.68 193.89Z" />
	</g>
	<text id="Created by Vectors Point" style="transform: matrix(1,0,0,1,0,285)" >
		<tspan x="0" y="0" class="txt1">Created by Vectors Point</tspan>
	</text>
	<text id="from the Noun Project" style="transform: matrix(1,0,0,1,0,290)" >
		<tspan x="0" y="0" class="txt1">from the Noun Project</tspan>
	</text>
</svg>