<svg xmlns="http://www.w3.org/2000/svg" viewBox="0 0 35 27" width="35" height="27">
	<style>
		tspan { white-space:pre }
		.shp0 { fill: #606260 } 
	</style>
	<path id="Layer" fill-rule="evenodd" class="shp0" d="M0.47 9.28C-0.2 7.11 0.24 4.56 1.84 2.82C4.55 -0.13 11.1 -0.34 12.91 3.7C14.24 0.68 20.16 -1.98 23.82 2.68C24.52 3.59 25.03 4.61 25.14 5.78C30.88 2.58 37.47 8.66 33.88 15.75C32.7 18.1 30.59 19.93 28.68 21.68C27.36 22.89 23.82 25.97 22.21 26.99C22.14 27.03 22.07 27 22.03 26.95C19.55 25.12 17.27 22.8 15.21 20.49C14.19 21.35 13.44 22.43 13.14 22.19C5.46 15.92 1.7 13.17 0.47 9.28ZM22.88 8.37C22.92 8.42 22.97 8.48 23.01 8.53C23.02 8.56 22.99 8.59 22.97 8.57C21.05 6.7 18.91 4.65 16.05 4.98C11.74 5.47 9.05 11.65 12.44 16.42C15.17 20.27 18.77 23.43 22.14 26.7C25.17 23.91 31.24 19.85 33.25 16.42C36.25 11.3 33.29 5.51 28.33 5.37C25.99 5.31 24.24 6.63 22.88 8.37ZM2.14 11.68C3.88 14.3 6.13 16.05 13.26 21.71C13.85 21.24 14.35 20.66 14.93 20.18C13.3 18.38 11.61 16.31 10.89 13.98C10.2 11.77 10.73 9.26 11.96 7.27C14.24 3.59 19.26 3.54 22.8 8.26C23.19 7.34 23.88 6.59 24.73 6.03C24.39 5.18 24.39 4.57 23.43 3.26C20.02 -1.43 14.93 0.8 12.9 3.94C12.88 3.98 12.81 3.97 12.83 3.92C12.83 3.9 12.84 3.88 12.85 3.86C12.83 3.86 12.81 3.84 12.79 3.82C10.58 -0.12 2.55 0.21 0.94 4.91C0.19 7.15 0.86 9.77 2.14 11.68Z" />
</svg>