<svg xmlns="http://www.w3.org/2000/svg" viewBox="0 0 40 35" width="40" height="35">
	<style>
		tspan { white-space:pre }
		.shp0 { fill: #606260 } 
		.txt1 { font-size: 5px;fill: #606260;font-family: "'      Helvetica       Neue'" } 
	</style>
	<g id="Layer">
		<path id="Layer" fill-rule="evenodd" class="shp0" d="M36.47 14.5C35.71 15.09 34.78 15.48 33.78 15.69C33.85 15.99 33.69 16.45 33.55 16.62C33.24 17 32.49 17.13 31.97 17.21C31.7 19.64 29.89 24.54 28.99 26.81C28.45 28.2 28.11 29.88 27.04 30.99C26.08 31.97 24.58 31.98 23.3 32.03C19.92 32.16 16.49 32.03 13.12 31.88C11.79 31.82 10.35 31.85 9.18 31.15C7.95 30.41 7.48 28.97 6.98 27.69C6.31 25.93 3.82 19.39 3.31 17.26C2.86 17.23 2.42 17.17 2 17.08C0.87 17.36 0.7 15.65 0.97 14.92C1.55 13.37 3.17 13.21 4.62 13.21C7.4 13.2 10.23 13.29 13.18 13.33C13.94 13.34 14.77 13.26 15.53 13.39C15.42 11.36 15.47 9.32 15.65 7.31C15.81 5.56 16.16 3.6 18.26 3.3C20.2 3.01 21.77 4.55 22.11 6.35C22.28 7.19 22.18 8.07 22.18 8.92C22.17 10.27 22.58 12.82 21.33 13.71C21.47 13.71 26.55 13.61 26.56 13.61C24.89 11.8 24.17 9.17 24.82 6.77C25.48 4.33 28.01 1.31 30.87 1.71C30.96 1.73 30.99 1.88 30.88 1.89C28.08 2.27 25.78 4.84 25.31 7.53C24.87 10.17 26.16 13.12 28.55 14.43C31.1 15.82 34.88 15.54 36.87 13.36C39.83 10.12 38.75 4.35 35.4 2.48C34.02 1.72 32.42 1.67 30.88 1.46C30.69 1.44 30.71 1.13 30.9 1.13C32.82 1.06 34.86 1.27 36.42 2.5C39.79 5.16 40.29 11.56 36.47 14.5ZM16.02 16.22C16.05 16.22 16.08 16.25 16.07 16.29C16.05 16.32 16.04 16.35 16.02 16.38C16.05 16.61 16.07 16.83 16.08 17.06C16.09 17.13 15.98 17.16 15.93 17.12C15.98 17.49 16.18 17.86 16.48 18.11C17.14 18.64 18.06 18.28 18.39 17.56C18.88 16.57 17.79 16.15 17.54 14.48C17.39 13.48 17.18 9.18 17.52 7.4C17.69 6.42 18.69 4.97 19.85 5.8C20.56 6.32 20.32 7.99 20.34 8.77C20.35 9.28 20.47 13.14 20.42 13.67C20.72 13.69 20.83 13.7 20.97 13.65C22.43 13.11 21.92 9.87 21.93 7.48C21.95 5.36 20.49 2.94 18.02 3.56C15.6 4.17 15.88 7.4 15.8 9.33C15.71 11.64 15.83 13.93 16.02 16.22ZM19.01 5.85C17.55 6.01 17.63 8.22 17.6 9.28C17.57 10.65 17.7 13.08 17.75 13.63C18.54 13.52 19.35 13.58 20.16 13.64C19.93 7.32 20.54 5.69 19.01 5.85ZM7.25 27.29C8.82 27.39 10.38 27.5 11.96 27.58C10.73 25.81 10.53 23.61 9.46 19.29C9.3 18.62 9.04 17.97 8.88 17.31C8.76 17.31 4.26 17.33 3.45 17.28C4.23 18.94 4.8 20.7 5.44 22.42C6.03 24.05 6.64 25.67 7.25 27.29ZM31.76 17.24C29.83 17.47 22.75 17.45 20.41 16.89C20.29 18.98 18.99 20.15 17.09 20.14C17.27 24.42 17.53 26.14 17.31 27.75C19.77 27.76 21.5 27.65 23.85 27.6C24.5 24.33 25.09 21.02 26.1 17.84C26.15 17.7 26.38 17.75 26.35 17.89C25.74 21.15 25.04 24.42 24.11 27.6C25.27 27.59 26.43 27.6 27.59 27.66C27.68 27.66 27.71 27.82 27.61 27.82C23.49 28.31 12.48 28.28 7.31 27.43C9.04 32 9.52 31.53 18.97 31.66C25.69 31.75 26.51 31.89 27.73 29.21C30.49 23.2 31.09 19.16 31.76 17.24ZM16.93 20.14C15.27 20.07 13.68 18.38 13.71 17C12.2 17.23 10.63 17.3 9.06 17.31C9.93 18.37 10.51 23.77 12.27 27.57C12.27 27.58 12.27 27.59 12.28 27.6C13.86 27.68 15.45 27.73 17.05 27.75C16.92 26.62 16.83 22.13 16.93 20.14ZM33.55 15.73C31.09 16.18 28.4 15.56 26.61 13.67C24.98 13.85 23.32 13.94 21.7 14.02C20.42 14.08 19.04 13.99 17.76 13.8C17.8 14.13 17.85 14.46 17.93 14.78C18.15 15.66 19.05 16.37 18.84 17.34C18.69 18.01 18.09 18.59 17.4 18.68C16.2 18.84 15.45 17.56 15.83 16.55C15.7 15.59 15.6 14.61 15.54 13.63C14.35 13.85 12.98 13.65 11.78 13.63C4.12 13.49 2.45 13.08 1.44 14.58C1.22 14.91 1.09 15.3 1.08 15.68C1.07 15.86 1.09 16.06 1.17 16.25C1.26 16.22 1.2 16.26 1.18 16.29C1.45 16.93 1.84 16.9 2.16 16.95C4.91 17.36 10.55 16.76 13.72 16.87C13.78 16.36 14.05 15.88 14.62 15.5C14.67 15.46 14.72 15.53 14.69 15.57C12.96 17.32 14.97 19.82 17.05 19.85C18.09 19.88 19.18 19.4 19.69 18.46C20.18 17.54 20.23 16.4 20.16 15.37C20.16 15.29 20.27 15.28 20.29 15.36C20.38 15.82 20.43 16.31 20.42 16.8C24.23 16.85 24.33 17.54 31.81 16.87C32.35 16.82 32.9 16.84 33.28 16.41C33.52 16.15 33.51 16.03 33.55 15.73Z" />
		<path id="Layer" class="shp0" d="M30.92 3.99C28.94 3.73 27.22 5.79 26.81 7.52C26.34 9.48 27.22 11.7 28.96 12.77C30.65 13.81 33.31 13.77 34.85 12.47C37.42 10.29 36.82 5.82 34.3 4.25C33.31 3.63 32.08 3.53 30.95 3.58C30.81 3.59 30.79 3.81 30.94 3.82C32.2 4.02 33.53 4.06 34.55 4.94C37.27 7.31 36.32 12.95 31.99 13.04C28.95 13.1 27.31 11.12 27.18 8.88C27.04 6.67 28.73 4.5 30.94 4.12C31.02 4.1 31 3.99 30.92 3.99Z" />
		<path id="Layer" class="shp0" d="M27.8 8.86C28.91 9.02 30.08 8.98 31.21 8.92C31.23 10.07 31.19 11.22 31.28 12.35C31.3 12.49 31.52 12.49 31.55 12.37C31.89 11.27 31.74 10.04 31.68 8.91C32.87 8.86 34.2 8.86 35.3 8.42C35.49 8.34 35.42 8.08 35.24 8.07C34.07 7.94 32.83 8.2 31.66 8.31C31.62 7.26 31.62 6.21 31.74 5.16C31.76 5.02 31.53 4.95 31.49 5.1C31.18 6.18 31.17 7.25 31.19 8.35C30.07 8.43 28.94 8.41 27.82 8.56C27.66 8.57 27.6 8.83 27.8 8.86Z" />
	</g>
	<text id="Created by Vectors Point " style="transform: matrix(0.149,0,0,0.146,0,38.593)" >
		<tspan x="0" y="0" class="txt1">Created by Vectors Point</tspan>
	</text>
	<text id="from the Noun Project " style="transform: matrix(0.149,0,0,0.146,0,39.326)" >
		<tspan x="0" y="0" class="txt1">from the Noun Project</tspan>
	</text>
</svg>