<svg xmlns="http://www.w3.org/2000/svg" viewBox="0 0 35 27" width="35" height="27">
	<style>
		tspan { white-space:pre }
		.shp0 { fill: #606260 } 
	</style>
	<path id="Layer" fill-rule="evenodd" class="shp0" d="M20.07 13.57C21.6 13.91 23.07 14.49 24.4 15.31C25.74 16.12 26.92 17.16 27.91 18.37C28.89 19.58 29.66 20.94 30.19 22.42C30.71 23.88 30.98 25.43 30.99 26.98L3.3 26.98C3.31 25.43 3.57 23.88 4.09 22.42C4.62 20.94 5.39 19.58 6.37 18.37C7.36 17.16 8.55 16.12 9.88 15.31C11.22 14.49 12.68 13.91 14.21 13.57C11.13 12.2 9.43 8.89 10.14 5.61C10.85 2.34 13.77 0 17.14 0C20.52 0 23.43 2.34 24.14 5.61C24.85 8.89 23.15 12.2 20.07 13.57ZM10.49 7.07C10.49 7.88 10.75 8.83 11.26 9.97C11.89 10.98 11.76 10.85 12.53 11.73C13.06 12.35 14.02 12.95 14.77 13.26C15.52 13.57 16.33 13.57 17.14 13.57C19.72 13.89 22.64 11.64 23.6 9.33C24.56 7.04 23.65 4.16 21.88 2.4C20.11 0.64 17.09 0.06 14.77 1.01C12.45 1.96 10.49 4.58 10.49 7.07ZM30.02 26.51C30.03 23.12 29.07 19.86 26.66 17.47C24.24 15.07 20.56 13.73 17.14 13.73C13.72 13.73 9.99 15.07 7.56 17.47C5.15 19.86 4.26 23.12 4.26 26.51L30.02 26.51Z" />
</svg>